PathFileType	4	(X/Y/Z)	Patient4_TMGait_0pt3_02_left_26.trc.trc
DataRate	CameraRate	NumFrames	NumMarkers	Units	OrigDataRate	OrigDataStartFrame	OrigNumFrames
51.094890510949	51.094890510949	6	33	mm	51.094890510949	53	       141
Frame#	Time	Sacral			L.Shoulder			Chest			R.Shoulder			Neck			R.ASIS			L.ASIS			R.Thigh.Superior			R.Thigh.Lateral			R.Thigh.Inferior			R.Patella			L.Thigh.Superior			L.Thigh.Lateral			L.Thigh.Inferior			L.Patella			L.Shank.Superior			L.Shank.Lateral			L.Shank.Inferior			R.Shank.Superior			R.Shank.Lateral			R.Shank.Inferior			R.Heel			R.Midfoot.Superior			R.Midfoot.Lateral			R.Toe			L.Heel			L.Midfoot.Lateral			L.Midfoot.Superior			L.Toe			L.Elbow			L.Wrist			R.Elbow			R.Wrist			
		X1	Y1	Z1	X2	Y2	Z2	X3	Y3	Z3	X4	Y4	Z4	X5	Y5	Z5	X6	Y6	Z6	X7	Y7	Z7	X8	Y8	Z8	X9	Y9	Z9	X10	Y10	Z10	X11	Y11	Z11	X12	Y12	Z12	X13	Y13	Z13	X14	Y14	Z14	X15	Y15	Z15	X16	Y16	Z16	X17	Y17	Z17	X18	Y18	Z18	X19	Y19	Z19	X20	Y20	Z20	X21	Y21	Z21	X22	Y22	Z22	X23	Y23	Z23	X24	Y24	Z24	X25	Y25	Z25	X26	Y26	Z26	X27	Y27	Z27	X28	Y28	Z28	X29	Y29	Z29	X30	Y30	Z30	X31	Y31	Z31	X32	Y32	Z32	X33	Y33	Z33	

53	51.957714285714	760.834376542940	1002.530663131390	429.896893214337	930.517347927587	1421.983483519945	231.138725418743	1043.582926360990	1353.299219569036	385.297346340545	978.981409199698	1433.034683582364	563.266918899207	929.303952079935	1489.197004923493	386.740313129840	993.067792023917	933.024888068922	538.037994489622	969.270673489894	952.295332683517	264.609568233222	1030.100076109758	731.245267128238	517.755235811511	953.523555825638	624.209363702246	587.571664150818	1030.320255963103	563.313211994189	510.426849687558	1020.143334770100	454.904722911258	534.451712720899	1032.658972228967	749.850991941487	305.568271220835	957.605891317719	623.510151971081	250.536125553520	1048.477276552874	555.555966875983	317.871166605060	1054.327156682871	481.467083649538	327.545145062565	1017.897557108335	407.605285803238	322.689470636977	919.316671666754	301.566166668622	271.179670490393	953.720158108707	187.564407107599	344.972014610134	939.331440675442	391.466247623185	543.735682178216	817.989174772146	358.817919725956	607.236359629049	798.318890814300	249.540996045297	559.863480644926	592.944568330768	195.435406202450	537.316806942987	758.318796605410	128.874033144958	575.067487047713	650.383694770279	133.407429923322	609.283580661925	819.764410764923	30.834297705114	597.787659700712	810.266212038844	39.714647556266	382.054385506863	886.441314778535	36.365453681601	304.091695925643	970.375992292081	96.074111548080	333.693857942675	1098.529975867660	40.482207838992	307.383629864495	895.698108502758	1071.539287148137	113.722175928923	940.581595362595	814.165897154132	131.805967277406	1047.682739995095	1089.653267095730	683.310144377249	1260.241206510355	942.342615660163	679.418996212754	
54	51.977285714286	759.318468303876	1000.888909936248	425.707726643966	931.683853482950	1421.268549843260	229.327346796515	1042.600513949860	1352.312131821787	384.880815532135	975.403987092349	1431.052895786033	562.385237752522	928.437586115820	1488.077234403828	385.330360030676	991.261943333021	932.323973506096	535.457969001889	969.381359021822	951.339306704107	261.983682359057	1034.724028964414	733.231370770898	513.764584264063	962.660618569478	624.148786385758	583.881436599570	1040.785389906686	565.339372006185	505.701288440310	1032.948378741301	455.496487564543	530.174401021195	1032.658340021800	748.439238669139	303.630276768419	957.641255049431	622.028399419248	249.157132870690	1047.895965872629	554.088594562844	317.440832494403	1053.422611827154	479.825320154807	327.449603801320	1016.095447037108	405.971803775209	322.500051021987	916.597542711204	300.860832723042	270.821778653817	949.236813797421	186.733680575429	345.029992612561	950.544598224817	392.410483538073	539.859527276011	827.720193745886	363.587969382164	602.847229153581	805.415219300810	254.386626454115	556.594339021240	599.130572891838	208.071356537681	532.603228922756	761.667612348156	134.368883018775	573.350136792975	653.110536877562	144.225747887724	605.984795692014	817.719388694957	30.744609407808	598.103606533603	804.402467627698	39.729979632574	381.992286805553	880.591549997167	36.353003199371	304.053724085512	964.553577217951	95.980071332011	333.768819331149	1092.694378740240	40.350823794737	307.337666657483	910.391240434363	1070.730938682401	108.130797596559	965.842128470478	815.433291305648	124.443770643015	1029.246994880504	1083.732726259436	681.303987338546	1227.397479905391	917.644630404586	681.938357295282	
55	51.996857142857	757.686459417077	999.168127592282	421.759693120446	932.833924650915	1420.571904320560	227.929791608079	1041.534915274447	1351.230051335690	384.834477396854	971.684052969731	1428.848055553958	561.866661511880	927.517962905377	1486.873685154325	384.357033028913	989.339070758487	931.552458679455	533.110947950807	969.385902971768	950.278896146744	259.600471651083	1038.985921837889	735.432954937129	509.844485218592	971.483198579416	624.399211351863	580.229643580302	1050.762454681432	567.789572078537	500.927211900781	1045.422502070431	456.640354649448	525.686896429760	1032.617099808107	746.988691980126	301.869059699451	957.661590207583	620.480043456679	247.909275328105	1047.363753855630	552.575747294504	317.086963317819	1052.598024117722	478.137837409300	327.426997448480	1014.360050057689	404.284511486180	322.377576686823	913.920594107533	300.135166586338	270.509524449440	944.775214295818	185.876556496679	345.093794850967	961.702752359367	393.659314737892	535.812707416505	837.517709457065	368.049633237148	598.183100440220	813.173808173385	258.823497522260	552.982656520503	606.214790948272	218.596196590731	527.324912206266	766.448613054296	139.666201341399	571.223806270960	657.306034634382	153.757876324747	602.259246305233	818.114143781779	31.070713601301	598.319743667607	798.534195406068	39.747460431963	381.924293644708	874.744377867438	36.335368696296	304.008705645003	958.735007371589	95.881187381591	333.839063126219	1086.858532318652	40.219992263972	307.291040323260	924.880502542793	1070.570192606277	103.068490459984	991.889617111335	818.094772229340	117.814937034642	1010.648092914022	1078.312380175185	679.262623871528	1192.427822811946	894.578481936400	684.119642013202	
56	52.016428571429	755.979142227735	997.483676583549	418.049425350772	934.040321946248	1419.967453405590	226.933586406062	1040.438332054376	1350.134842590766	385.158910365021	967.870225481529	1426.555850102383	561.682422751512	926.600144107639	1485.680966631398	383.789057015203	987.298341550409	930.804978506312	531.052464214179	969.317100351455	949.199100659012	257.488741219090	1042.756182821365	737.869477532710	506.107517842969	979.746927649826	625.011061176835	576.698606411806	1060.030402687444	570.664790426794	496.272047342329	1057.330529370036	458.387221107628	521.174350146314	1032.464881434029	745.524045133819	300.251864377874	957.512919337878	618.939066813487	246.761772893665	1046.700383623711	551.045234630858	316.755426861190	1051.650111288697	476.457720983871	327.428127463250	1012.524375061212	402.607939727569	322.280520242648	911.160465678016	299.409621613363	270.214895223265	940.273837796244	185.027410241588	345.143876718930	972.657611480883	395.214811209847	531.762443408004	847.287344535005	371.953188051031	593.437275805776	821.678250826292	262.560658776502	549.184739636087	614.256376393783	226.217303114252	521.776487814167	772.993932815183	144.379279690918	568.788133932416	663.270609573786	161.271717248398	598.304241518355	821.667874393266	31.801049227211	598.366791278714	792.656228098534	39.763456913368	381.849275650083	868.895530298404	36.310237484621	303.953785000139	952.913724619192	95.779449212320	333.895293644644	1081.018913732097	40.094952007092	307.243470305810	939.042190355670	1071.123899697088	98.523623061616	1018.531792388142	822.338044356011	111.941992586723	992.019997777322	1073.562324668859	677.270650492974	1155.767710237616	873.673384974836	685.880629375927	
57	52.036000000000	754.238567029124	995.966859405776	414.567387050239	935.375211331574	1419.535624933926	226.321467450955	1039.360765680454	1349.121697455063	385.851682624349	964.008843781600	1424.333360872466	561.796541213355	925.737327278057	1484.605428776123	383.586065751366	985.134974669195	930.184623156485	529.334256977653	969.210018377605	948.199187228560	255.680876209559	1045.925953195997	740.553716665963	502.665968167144	987.226824313527	626.019860384372	573.373149188420	1068.391007900475	573.947048692146	491.901573904930	1068.458665029071	460.775297682060	516.827708643214	1032.122501092323	744.080784401256	298.767466944326	957.038734485547	617.491861144501	245.691289723674	1045.710553468083	549.536110707856	316.409645833953	1050.357201880537	474.848316878181	327.416615122629	1010.406787763869	401.018166717834	322.175825876685	908.183902578585	298.711270188294	269.914532051947	935.666607875517	184.226291225538	345.164984412945	983.293238498998	397.065998323224	527.881652433481	856.995927380662	375.041643634352	588.833902759354	831.057936841786	265.324214426574	545.385097494612	623.415132845030	230.276530297558	516.301745570074	781.650141519861	148.119833729662	566.178139008540	671.344140686911	166.117063030621	594.354497107842	829.026616174245	32.846396006424	598.182578256647	786.763875711456	39.774880754522	381.766789261059	863.040698332581	36.276822695356	303.887229778444	947.083015826731	95.678272281459	333.929418265137	1075.171953322961	39.980957531084	307.194950734811	952.787725599779	1072.440733904591	94.475713262194	1045.560142770659	828.324299554680	106.848857493050	973.472609774073	1069.662743258019	675.408292611906	1117.943831336146	855.406877233472	687.160194715084	
58	52.055571428571	752.503814844602	994.753055852877	411.299141607794	936.903446409177	1419.355703211149	226.072571494644	1038.345947763275	1348.290868385838	386.906469976278	960.141310139591	1422.345225740401	562.167974965340	924.976111839780	1483.754763444594	383.701910710577	982.841166131876	929.791304064614	527.997010681652	969.100297959401	947.381890734476	254.211200928505	1048.409944140371	743.485538541247	499.623213525146	993.727783205874	627.442015131432	570.339108448174	1075.671546539692	577.594986310993	487.966606124831	1078.614735509827	463.822259505719	512.829153987766	1031.510770947672	742.701288399711	297.427247806194	956.095181542805	616.228352948250	244.684653136709	1044.203431763452	548.094920465634	316.032515700377	1048.501379435432	473.377242710667	327.370229886025	1007.829135241913	399.595470745132	322.040414977892	904.862281476770	298.071311419708	269.591290263544	930.889009505166	183.514806140834	345.146629983523	993.518462499104	399.190811529595	524.334957696031	866.661686408771	377.081779317489	584.605795869283	841.466970966692	266.894631597215	541.779521723316	633.947713779866	230.328235697991	511.250805403763	792.735201416495	150.548445074740	563.546234861464	681.876188983939	167.809094247801	590.653412726345	840.674504018578	34.060075425035	597.725856869037	780.853694265686	39.779727280167	381.676858042443	857.175908342289	36.235775560091	303.808411811528	941.236766131110	95.582076467255	333.935139854491	1069.314436706304	39.882642364821	307.145824470384	966.065921216863	1074.547354032954	90.901558237465	1072.753396434600	836.174925100555	102.560859742827	955.087723492706	1066.790520624527	673.740017838281	1079.546325777445	840.167211694884	687.922792472712	
